<?xml version="1.0" standalone="no"?>
<!DOCTYPE svg PUBLIC "-//W3C//DTD SVG 20010904//EN"
 "http://www.w3.org/TR/2001/REC-SVG-20010904/DTD/svg10.dtd">
<svg version="1.0" xmlns="http://www.w3.org/2000/svg"
 width="1563.000000pt" height="1563.000000pt" viewBox="0 0 1563.000000 1563.000000"
 preserveAspectRatio="xMidYMid meet">
<metadata>
Created by potrace 1.14, written by Peter Selinger 2001-2017
</metadata>
<g transform="translate(0.000000,1563.000000) scale(0.100000,-0.100000)"
fill="#000000" stroke="none">
<path d="M7881 15367 c-7 -19 -13 -43 -15 -53 -3 -10 -30 -120 -61 -244 -31
-124 -59 -232 -60 -240 -2 -8 -27 -105 -55 -215 -29 -110 -53 -204 -54 -210
-1 -5 -13 -56 -27 -112 -13 -57 -27 -103 -30 -103 -5 0 -168 200 -199 245 -28
41 -71 87 -76 83 -4 -5 -108 -410 -118 -463 -3 -11 -12 -47 -21 -80 -9 -33
-52 -202 -95 -376 -44 -174 -83 -326 -88 -338 -7 -20 -13 -15 -67 55 -33 42
-77 97 -97 123 -21 25 -79 98 -128 161 -50 63 -96 122 -103 130 -7 8 -32 41
-57 73 -25 31 -46 54 -47 50 -4 -14 -75 -296 -77 -307 -2 -6 -6 -28 -11 -48
-4 -21 -10 -38 -14 -38 -3 1 -58 67 -122 148 -200 254 -390 494 -453 574 -34
42 -81 102 -106 133 l-45 57 -13 -43 c-7 -24 -14 -53 -17 -64 -2 -11 -22 -92
-45 -180 -99 -389 -242 -952 -245 -968 -2 -10 -7 -27 -10 -37 -3 -10 -7 -27
-9 -37 -2 -10 -45 -182 -96 -381 -50 -200 -93 -373 -95 -384 -2 -11 -7 -28
-10 -38 -3 -10 -8 -27 -10 -37 -2 -10 -33 -133 -69 -273 -113 -443 -227 -894
-231 -910 -2 -8 -51 -204 -109 -435 -58 -231 -108 -429 -110 -440 -26 -131
-59 -205 -89 -205 -5 0 -23 -6 -40 -14 -18 -7 -133 -51 -257 -96 -124 -45
-234 -86 -245 -91 -11 -5 -90 -34 -175 -64 -85 -31 -164 -60 -175 -65 -19 -9
-110 -43 -312 -116 -50 -18 -120 -44 -155 -57 -34 -14 -175 -67 -313 -117
-137 -51 -284 -105 -325 -120 -41 -16 -113 -43 -160 -60 -47 -18 -89 -34 -93
-37 -10 -6 20 -28 111 -83 l73 -43 -113 -43 c-178 -67 -452 -168 -578 -214
-63 -23 -144 -53 -180 -67 -36 -14 -130 -49 -210 -78 -80 -29 -156 -58 -170
-64 -20 -8 -604 -225 -1109 -411 l-74 -27 76 -49 c85 -54 158 -100 322 -203
131 -82 366 -230 400 -251 13 -8 109 -68 212 -133 103 -65 242 -153 308 -194
66 -41 197 -124 290 -183 94 -59 233 -147 310 -195 77 -48 156 -98 175 -110
19 -13 152 -96 295 -185 143 -90 300 -188 348 -219 48 -31 113 -72 145 -92
215 -135 510 -321 577 -363 43 -28 87 -55 97 -61 27 -16 145 -90 238 -149 47
-30 124 -79 171 -108 l87 -53 2 -85 c1 -47 3 -107 5 -135 1 -27 6 -129 9 -225
4 -96 9 -214 11 -263 3 -48 7 -149 10 -225 6 -142 11 -272 20 -477 7 -160 14
-330 20 -500 3 -77 7 -185 10 -240 2 -55 7 -158 10 -230 7 -166 14 -340 20
-480 3 -60 7 -173 10 -250 2 -77 7 -189 10 -250 3 -60 7 -166 10 -235 10 -272
15 -400 20 -505 3 -60 7 -159 10 -220 2 -60 7 -175 11 -255 4 -80 6 -157 5
-172 -1 -16 1 -28 4 -28 3 0 119 95 257 211 139 116 262 218 273 227 166 138
213 178 232 195 21 19 22 19 21 1 0 -19 10 -264 17 -402 2 -41 7 -156 10 -255
4 -100 8 -204 10 -232 2 -27 4 -96 6 -153 1 -56 6 -102 10 -102 6 0 216 172
384 315 55 47 229 191 259 215 10 8 33 28 50 43 17 15 58 47 90 70 48 34 164
127 341 275 11 9 223 186 470 392 248 207 461 385 475 397 14 12 258 215 543
453 285 237 528 440 540 450 55 46 258 216 337 280 30 25 57 47 60 51 33 36
135 109 148 105 10 -3 51 -14 92 -25 41 -12 89 -25 105 -30 17 -5 154 -44 305
-86 151 -42 304 -85 340 -95 154 -44 430 -121 449 -125 12 -2 25 -6 29 -9 5
-3 19 -7 33 -10 13 -3 47 -12 74 -20 91 -26 489 -138 540 -151 64 -17 499
-139 590 -166 39 -11 77 -22 85 -24 25 -6 741 -205 810 -226 36 -10 178 -50
315 -89 271 -75 519 -144 575 -160 155 -44 222 -61 226 -58 3 4 -138 369 -167
433 -5 11 -58 143 -118 294 l-110 273 32 -7 c47 -10 45 -9 277 -75 118 -33
223 -63 234 -65 10 -2 44 -12 75 -21 31 -9 63 -18 71 -19 8 -2 96 -27 195 -55
99 -29 187 -53 195 -55 8 -3 41 -11 74 -20 32 -9 60 -14 62 -12 2 2 -55 150
-127 328 -72 178 -132 329 -133 334 -2 6 -7 19 -11 30 -29 69 -147 362 -149
370 -1 6 -10 27 -19 49 -21 48 -21 49 1 43 9 -2 172 -48 362 -101 190 -53 374
-105 410 -115 36 -11 101 -29 145 -41 43 -12 85 -24 92 -27 19 -7 16 20 -7 69
-11 24 -110 270 -220 548 -111 278 -205 514 -210 525 -5 11 -27 67 -50 125
-22 58 -45 114 -50 125 -5 11 -50 124 -100 250 -50 127 -95 239 -100 250 -5
11 -82 202 -170 425 -89 223 -167 419 -174 435 -8 17 -39 95 -71 175 -31 80
-63 159 -70 175 -42 99 -528 1321 -528 1330 0 9 471 719 1992 3005 295 443
538 810 541 815 3 6 29 45 58 88 l53 77 -93 -5 c-51 -3 -120 -7 -153 -10 -33
-3 -98 -7 -145 -10 -97 -6 -213 -13 -315 -20 -38 -3 -104 -7 -145 -10 -41 -3
-102 -7 -135 -9 -73 -6 -212 -15 -320 -21 -44 -3 -107 -7 -140 -10 -69 -5
-101 -8 -450 -30 -81 -5 -193 -13 -285 -20 -36 -2 -106 -7 -157 -10 -51 -3
-116 -8 -145 -10 -29 -2 -96 -7 -148 -10 -52 -3 -126 -8 -165 -10 -38 -3 -104
-7 -145 -10 -117 -8 -230 -16 -294 -20 -104 -6 -260 -17 -306 -20 -56 -4 -200
-14 -300 -20 -41 -3 -109 -8 -150 -11 -41 -3 -102 -7 -135 -9 -72 -4 -239 -15
-315 -21 -78 -6 -226 -16 -284 -18 -35 -2 -53 2 -62 13 -12 15 -71 90 -136
172 -15 19 -75 95 -134 169 -58 74 -118 150 -133 169 -14 19 -30 39 -36 45 -5
6 -25 32 -44 56 -19 25 -41 52 -48 60 -8 8 -52 65 -99 125 -48 61 -99 126
-114 145 -70 87 -286 360 -323 409 -23 29 -47 58 -52 65 -6 6 -35 43 -65 81
-30 39 -59 75 -65 82 -16 19 -25 30 -120 153 -49 63 -92 117 -95 120 -3 3 -73
91 -155 195 -82 105 -160 204 -174 221 -15 17 -38 46 -53 65 -14 19 -82 104
-150 190 -67 86 -197 250 -288 365 -191 242 -187 237 -221 278 -14 17 -58 73
-99 125 -40 52 -79 102 -86 110 -8 9 -69 87 -138 174 l-124 158 -11 -34z"/>
</g>
</svg>
